<svg width="25" height="24" viewBox="0 0 25 24" fill="none" xmlns="http://www.w3.org/2000/svg">
<path d="M7.01477 2.9502C7.24107 2.94773 7.458 3.02444 7.61438 3.15723C7.7713 3.29055 7.86823 3.48143 7.84778 3.7041C7.82262 3.97108 7.88177 4.17304 7.99036 4.34668C8.10027 4.52241 8.26185 4.67098 8.44446 4.83008L8.69543 5.03516C9.96672 6.00415 11.4344 6.14549 12.9991 5.95996C13.9399 5.85163 14.8864 5.68848 15.8448 5.68848C17.5935 5.6885 19.0337 6.36642 20.2091 7.63867C20.2624 7.69647 20.3242 7.7627 20.3566 7.83691C20.3733 7.87534 20.3834 7.91717 20.38 7.96289C20.3766 8.00855 20.3609 8.05507 20.3312 8.10254C20.2718 8.19735 20.1945 8.24579 20.1066 8.25488C20.0221 8.26354 19.9342 8.23513 19.8527 8.19434C18.8689 7.69862 17.8917 7.829 16.9093 8.23438C16.8634 8.25295 16.817 8.27187 16.7716 8.29199C16.5984 8.36906 16.4317 8.46086 16.2736 8.56543C15.5031 9.07267 14.4779 9.78023 13.4415 10.4316C12.4054 11.0829 11.352 11.6819 10.5245 11.9707C9.72078 12.2517 8.90604 12.3312 8.07825 12.0723C8.02908 12.0568 7.98966 12.0476 7.95911 12.0449C7.92865 12.0422 7.91152 12.0458 7.90149 12.0518C7.89258 12.057 7.8829 12.068 7.87512 12.0938C7.86705 12.1206 7.86227 12.1603 7.8634 12.2168C7.8728 12.7393 7.87123 13.2618 7.8634 13.7832C7.86347 13.8666 7.87541 13.9107 7.89856 13.9385C7.92186 13.9663 7.96547 13.9886 8.05676 14.0049C8.48347 14.0807 8.79177 14.2266 8.99231 14.4697C9.19264 14.7126 9.27935 15.0443 9.27942 15.4775L9.29016 16.7305C9.2927 17.1487 9.29024 17.5672 9.27063 17.9844C9.23026 18.8424 9.35389 19.6521 9.71985 20.4258C9.76896 20.5308 9.80142 20.6215 9.81262 20.6992C9.82386 20.7775 9.81477 20.8478 9.77551 20.9043C9.7366 20.9602 9.67398 20.9949 9.5968 21.0156C9.51967 21.0363 9.42246 21.0449 9.30676 21.0449V21.0439C8.41832 21.0494 7.53343 21.0373 6.64661 21.0498C6.48341 21.0518 6.34406 21.0213 6.25305 20.9385C6.15902 20.8528 6.12873 20.7229 6.15735 20.5566C6.23201 20.1251 6.17669 19.7611 6.02063 19.4453C5.90328 19.2079 5.72769 18.9955 5.50403 18.8008L5.26477 18.6113C4.78 18.2622 4.57574 17.77 4.62708 17.1689C4.63976 17.0182 4.63938 16.8659 4.63684 16.7119C4.63432 16.5587 4.62939 16.4024 4.63293 16.2471V16.2461C4.64528 15.9103 4.78191 15.5909 5.01672 15.3506C5.25161 15.1103 5.56803 14.9663 5.90344 14.9463L5.99329 14.9346C6.07079 14.9192 6.11256 14.8926 6.13782 14.8584C6.17395 14.8095 6.18663 14.7317 6.18665 14.5996C6.18117 11.9392 6.18176 9.27854 6.18176 6.61816V6.26465C6.1802 5.42205 6.17421 3.94664 6.18762 3.70996C6.21276 3.25392 6.56092 2.95519 7.01477 2.9502ZM6.94934 20.0674C6.90491 20.0674 6.86184 20.085 6.8302 20.1162C6.79878 20.1473 6.78016 20.1892 6.77942 20.2334V20.2344C6.77759 20.311 6.79239 20.353 6.81458 20.377C6.83633 20.4003 6.87617 20.4179 6.95422 20.418H7.89368C8.18332 20.418 8.46735 20.4263 8.7511 20.4131C8.78386 20.4114 8.82229 20.4174 8.85364 20.4219C8.88769 20.4267 8.91682 20.4302 8.94153 20.4287C8.96557 20.4272 8.97785 20.4214 8.9845 20.4141C8.99149 20.4062 9.00185 20.3863 9.00012 20.3389C8.99751 20.2707 8.98347 20.2012 8.95032 20.1504C8.91939 20.1032 8.86886 20.0678 8.77844 20.0674H6.94934ZM8.4386 14.8223C8.28082 14.6753 8.10405 14.5833 7.9259 14.6553C7.89251 14.6688 7.8744 14.6875 7.8634 14.708C7.85175 14.7298 7.84627 14.7575 7.84583 14.792C7.84539 14.8266 7.84986 14.8646 7.85559 14.9043C7.86107 14.9422 7.86733 14.9837 7.86926 15.0205L7.87024 15.1582C7.86118 15.2866 7.82287 15.3871 7.74719 15.457C7.64744 15.5492 7.49589 15.5766 7.30872 15.5674C6.88336 15.5503 6.454 15.5619 6.02356 15.5674C5.75321 15.5705 5.56837 15.6333 5.44934 15.7539C5.33017 15.8747 5.26804 16.0627 5.26379 16.3369C5.25918 16.6442 5.27614 16.965 5.25891 17.2783C5.23966 17.6141 5.36941 17.856 5.61438 18.0957C5.71233 18.1911 5.81742 18.2806 5.92395 18.3711C6.03003 18.4612 6.13771 18.5526 6.23938 18.6494C6.44316 18.8435 6.62596 19.0635 6.72864 19.3564C6.73826 19.3841 6.75123 19.4013 6.76477 19.4121C6.7786 19.4231 6.79636 19.4302 6.81848 19.4346C6.84103 19.4391 6.86682 19.4407 6.89563 19.4404C6.90992 19.4403 6.92455 19.4399 6.93958 19.4395C6.95425 19.439 6.96947 19.4385 6.9845 19.4385H6.98547C7.45094 19.4439 7.92547 19.4277 8.39465 19.4434C8.51329 19.4487 8.57195 19.4286 8.60266 19.3955C8.63468 19.3609 8.65127 19.2978 8.64856 19.1816C8.63446 18.5433 8.6427 17.9043 8.6427 17.2676V15.3896C8.64346 15.166 8.59989 14.9713 8.43958 14.8223H8.4386ZM7.01965 3.56836C6.94436 3.56708 6.89414 3.59115 6.86145 3.62695C6.82778 3.6639 6.80696 3.72018 6.80481 3.79395C6.79546 4.07903 6.79894 6.53935 6.80286 6.82812V14.5781C6.80286 14.6143 6.79854 14.6526 6.79504 14.6865C6.7914 14.7219 6.78937 14.7543 6.79114 14.7842C6.7929 14.8136 6.79847 14.8389 6.81067 14.8604C6.81664 14.8709 6.82441 14.8815 6.83508 14.8916L6.8761 14.9209L6.87903 14.9219C6.91445 14.9433 6.95482 14.9547 6.99622 14.9551C7.03783 14.9554 7.07944 14.9449 7.11536 14.9238C7.15114 14.9028 7.18028 14.8723 7.20032 14.8359C7.22041 14.7995 7.23101 14.7584 7.22961 14.7168L7.22864 14.7139V3.80078H7.22961C7.22731 3.72452 7.20774 3.66807 7.1759 3.63086C7.14492 3.59477 7.09579 3.56973 7.01965 3.56836ZM7.91125 5.19434C7.87486 5.22909 7.86407 5.2646 7.86145 5.30078C7.8597 5.32513 7.86137 5.35062 7.86438 5.37891C7.86723 5.40563 7.87118 5.43709 7.87122 5.4668C7.8673 7.31916 7.87691 9.17193 7.86047 11.0234C7.859 11.1659 7.88552 11.256 7.93567 11.3193C7.98648 11.3833 8.06787 11.4278 8.1925 11.4658C9.08927 11.736 9.94403 11.5869 10.7843 11.2168C11.9673 10.691 12.9899 9.91027 14.0626 9.1875C14.2798 9.04087 15.5086 8.29327 15.9972 7.99512C16.0544 7.95007 16.1178 7.91268 16.1847 7.88379C16.9617 7.46848 17.8238 7.24088 18.7032 7.21484C18.0069 6.69455 17.1729 6.38877 16.3029 6.3418H16.3019C15.2292 6.26952 14.1817 6.44631 13.1202 6.58203C11.1938 6.82857 9.39866 6.57158 7.91125 5.19434Z" fill="#333333" stroke="#333333" stroke-width="0.1"/>
</svg>
